<svg id="fitfiletools_tracks" data-name="fitfiletools — tracks" xmlns="http://www.w3.org/2000/svg" viewBox="0 0 78 24"><defs><style>.cls-1{font-size:19.87px;fill:none;font-family:FootlightMTLight, Footlight MT Light;}.cls-2{fill:#f0f0ff;}.cls-3,.cls-4{fill:#ffc7ff;}.cls-3{fill-rule:evenodd;}</style></defs><title>Aoraki</title><text class="cls-1" transform="translate(3.82 18.93)">A<tspan class="cls-2" x="12" y="0">oraki</tspan></text><path class="cls-2" d="M14.67,17.74a8.84,8.84,0,0,1-.83-1.81l-.95-2.74a15.71,15.71,0,0,0-1.74.4l.33,1h0l1.17,3.38a.89.89,0,0,1,0,.22c0,.21,0,.32-.17.32h-.23v.46h3.5v-.46A1.39,1.39,0,0,1,14.67,17.74Z"/><path class="cls-2" d="M17.42,12.25c-.37-.95-2.37-1.12-5-.55l-2-5.7H9.84l-3,7.63C3.7,15.15,1.72,17,2.15,18.08A2,2,0,0,0,4.8,19a26.23,26.23,0,0,1,3.42,0v-.46H7.71a1.17,1.17,0,0,1-.83-.31,1.09,1.09,0,0,1-.32-.8A7.93,7.93,0,0,1,7,15.22c-.36.19-.69.38-1,.57l-.15.36c-.57,1.46-1.72,2-2.11,1.68-.71-.64,1.69-2.57,5.52-4s6.78-1.49,7.12-.6c.12.31-.07.75-.55,1.26a.15.15,0,0,0,0,.2.16.16,0,0,0,.16,0l0,0C17.18,13.73,17.66,12.89,17.42,12.25Zm-8.55.51-1.12.45L9.5,8.79l1.16,3.36C10.07,12.33,9.48,12.53,8.87,12.76Z"/><path id="Etoile" class="cls-3" d="M12.71,5.45,16,6a.69.69,0,0,1,.57.57L17,9.76c0,.06.1.06.12,0l.51-3.19A.68.68,0,0,1,18.23,6l3.32-.56a.06.06,0,0,0,0-.11c-.71-.13-2.45-.38-3.32-.5a.69.69,0,0,1-.59-.58c-.13-.81-.38-2.39-.48-3.19a.06.06,0,0,0-.11,0c-.18,1.15-.41,2.51-.52,3.21a.7.7,0,0,1-.57.58c-.61.1-1.75.28-3.25.49A.06.06,0,0,0,12.71,5.45Z"/><path id="Planette" class="cls-4" d="M73.57,6.34A8,8,0,1,0,75.91,12a8,8,0,0,0-2.34-5.66ZM67.44,7.89a12.37,12.37,0,0,1-2.23-.26c.1-.26.22-.5.34-.74A3.45,3.45,0,0,1,67.44,5Zm0,.94v2.7h-3a12.4,12.4,0,0,1,.45-3A13.68,13.68,0,0,0,67.44,8.83Zm0,3.64v2.7a13.68,13.68,0,0,0-2.53.31,12.4,12.4,0,0,1-.45-3Zm0,3.64V19a3.45,3.45,0,0,1-1.89-1.88c-.12-.24-.24-.48-.34-.74a12.37,12.37,0,0,1,2.23-.26Zm.94,0a12.15,12.15,0,0,1,2.22.26c-.1.26-.21.5-.33.74A3.48,3.48,0,0,1,68.38,19Zm0-.94v-2.7h3a12.91,12.91,0,0,1-.45,3,13.79,13.79,0,0,0-2.53-.31Zm0-3.64V8.83a13.79,13.79,0,0,0,2.53-.31,12.91,12.91,0,0,1,.45,3Zm0-3.64V5a3.48,3.48,0,0,1,1.89,1.88c.12.24.23.48.33.74A12.15,12.15,0,0,1,68.38,7.89ZM71.1,6.46a7.28,7.28,0,0,0-.68-1.07,7.2,7.2,0,0,1,2.39,1.52,9.34,9.34,0,0,1-1.29.49A10.22,10.22,0,0,0,71.1,6.46Zm-6.38,0a6.7,6.7,0,0,0-.42.94A9.34,9.34,0,0,1,63,6.91,7.2,7.2,0,0,1,65.4,5.39,7.28,7.28,0,0,0,64.72,6.46ZM64,8.29a13.91,13.91,0,0,0-.48,3.24H60.86a6.94,6.94,0,0,1,1.5-3.9A9.35,9.35,0,0,0,64,8.29Zm-.48,4.18A13.91,13.91,0,0,0,64,15.71a9.35,9.35,0,0,0-1.64.66,6.94,6.94,0,0,1-1.5-3.9Zm.78,4.13a6.7,6.7,0,0,0,.42.94,7.28,7.28,0,0,0,.68,1.07A7.2,7.2,0,0,1,63,17.09a9.34,9.34,0,0,1,1.29-.49Zm6.8.94a10.22,10.22,0,0,0,.42-.94,9.34,9.34,0,0,1,1.29.49,7.2,7.2,0,0,1-2.39,1.52,7.28,7.28,0,0,0,.68-1.07Zm.71-1.83a13.4,13.4,0,0,0,.48-3.24H75a7.09,7.09,0,0,1-1.5,3.9,9.46,9.46,0,0,0-1.65-.66Zm.48-4.18a13.4,13.4,0,0,0-.48-3.24,9.46,9.46,0,0,0,1.65-.66,7.09,7.09,0,0,1,1.5,3.9Z"/></svg>